<svg version="1.1"
     baseProfile="full"
     width="800" height="800"
     xmlns="http://www.w3.org/2000/svg"
     xmlns:xlink="http://www.w3.org/1999/xlink"
     >

  <defs>
    <g id="elem1">
      <circle cx="0" cy="0" r="80" fill="#000" />

      <circle cx="-30" cy="-30" r="22" fill="#fff" />
      <circle cx="30" cy="-30" r="22" fill="#fff" />
      <circle cx="30" cy="30" r="22" fill="#fff" />
      <circle cx="-30" cy="30" r="22" fill="#fff" />

      <circle cx="-30" cy="-30" r="11" fill="#000" />
      <rect x="8" y="-38" width="44" height="16" fill="#000" />
      <rect x="-40" y="20" width="20" height="20" fill="#000" />
    </g>
  </defs>

  <!--<rect width="800" height="1215" fill="#fff" stroke="#000" stroke-width="2" />-->

  <use transform="translate(100 100) rotate(0)" xlink:href="#elem1" />
  <use transform="translate(300 100) rotate(90)" xlink:href="#elem1" />
  <use transform="translate(500 100) rotate(180)" xlink:href="#elem1" />
  <use transform="translate(700 100) rotate(270)" xlink:href="#elem1" />

  <use transform="translate(100 300) scale(1 -1) rotate(0)" xlink:href="#elem1" />
  <use transform="translate(300 300) scale(1 -1) rotate(90)" xlink:href="#elem1" />
  <use transform="translate(500 300) scale(1 -1) rotate(180)" xlink:href="#elem1" />
  <use transform="translate(700 300) scale(1 -1) rotate(270)" xlink:href="#elem1" />

  <use transform="translate(100 500) rotate(45)" xlink:href="#elem1" />
  <use transform="translate(300 500) rotate(135)" xlink:href="#elem1" />
  <use transform="translate(500 500) rotate(225)" xlink:href="#elem1" />
  <use transform="translate(700 500) rotate(315)" xlink:href="#elem1" />

  <use transform="translate(100 700) scale(1 -1) rotate(45)" xlink:href="#elem1" />
  <use transform="translate(300 700) scale(1 -1) rotate(135)" xlink:href="#elem1" />
  <use transform="translate(500 700) scale(1 -1) rotate(225)" xlink:href="#elem1" />
  <use transform="translate(700 700) scale(1 -1) rotate(315)" xlink:href="#elem1" />

</svg>
