<svg version="1.1"
     baseProfile="full"
     width="800" height="1230"
     xmlns="http://www.w3.org/2000/svg"
     xmlns:xlink="http://www.w3.org/1999/xlink"
     >

  <defs>
    <g id="AndGate">
      <circle cx="0" cy="0" r="80" fill="#000" />
      <rect x="-80" y="0" width="160" height="80" fill="#000" />
    </g>

    <g id="OrGate">
      <path fill="#000" d="M0,-80 q80,60 80,160 q-80,-60 -160,0 q0,-100 80,-160 z" />
    </g>
  </defs>

  <!--<rect width="800" height="1215" fill="#fff" stroke="#000" stroke-width="2" />-->

  <rect x="90" y="20" width="20" height="100" fill="#fff" stroke="#000" stroke-width="4"  />
  <rect x="40" y="190" width="20" height="100" fill="#000" stroke="#000" stroke-width="4"  />
  <rect x="140" y="190" width="20" height="100" fill="#fff" stroke="#000" stroke-width="4"  />
  <use x="100" y="150" xlink:href="#AndGate" />

  <rect x="290" y="20" width="20" height="100" fill="#fff" stroke="#000" stroke-width="4"  />
  <rect x="240" y="190" width="20" height="100" fill="#fff" stroke="#000" stroke-width="4"  />
  <rect x="340" y="190" width="20" height="100" fill="#000" stroke="#000" stroke-width="4"  />
  <use x="300" y="150" xlink:href="#AndGate" />

  <rect x="490" y="20" width="20" height="100" fill="#000" stroke="#000" stroke-width="4"  />
  <rect x="440" y="190" width="20" height="100" fill="#000" stroke="#000" stroke-width="4"  />
  <rect x="540" y="190" width="20" height="100" fill="#000" stroke="#000" stroke-width="4"  />
  <use x="500" y="150" xlink:href="#AndGate" />

  <rect x="690" y="20" width="20" height="100" fill="#fff" stroke="#000" stroke-width="4"  />
  <rect x="640" y="190" width="20" height="100" fill="#fff" stroke="#000" stroke-width="4"  />
  <rect x="740" y="190" width="20" height="100" fill="#fff" stroke="#000" stroke-width="4"  />
  <use x="700" y="150" xlink:href="#AndGate" />

  <rect x="90" y="320" width="20" height="100" fill="#000" stroke="#000" stroke-width="4"  />
  <rect x="40" y="490" width="20" height="100" fill="#000" stroke="#000" stroke-width="4"  />
  <rect x="140" y="490" width="20" height="100" fill="#fff" stroke="#000" stroke-width="4"  />
  <use x="100" y="450" xlink:href="#OrGate" />

  <rect x="290" y="320" width="20" height="100" fill="#000" stroke="#000" stroke-width="4"  />
  <rect x="240" y="490" width="20" height="100" fill="#fff" stroke="#000" stroke-width="4"  />
  <rect x="340" y="490" width="20" height="100" fill="#000" stroke="#000" stroke-width="4"  />
  <use x="300" y="450" xlink:href="#OrGate" />

  <rect x="490" y="320" width="20" height="100" fill="#000" stroke="#000" stroke-width="4"  />
  <rect x="440" y="490" width="20" height="100" fill="#000" stroke="#000" stroke-width="4"  />
  <rect x="540" y="490" width="20" height="100" fill="#000" stroke="#000" stroke-width="4"  />
  <use x="500" y="450" xlink:href="#OrGate" />

  <rect x="690" y="320" width="20" height="100" fill="#fff" stroke="#000" stroke-width="4"  />
  <rect x="640" y="490" width="20" height="100" fill="#fff" stroke="#000" stroke-width="4"  />
  <rect x="740" y="490" width="20" height="100" fill="#fff" stroke="#000" stroke-width="4"  />
  <use x="700" y="450" xlink:href="#OrGate" />

  <rect x="90" y="620" width="20" height="100" fill="#fff" stroke="#000" stroke-width="4"  />
  <rect x="40" y="790" width="20" height="100" fill="#000" stroke="#000" stroke-width="4"  />
  <rect x="140" y="790" width="20" height="100" fill="#fff" stroke="#000" stroke-width="4"  />
  <use x="100" y="750" xlink:href="#AndGate" />

  <rect x="290" y="620" width="20" height="100" fill="#fff" stroke="#000" stroke-width="4"  />
  <rect x="240" y="790" width="20" height="100" fill="#fff" stroke="#000" stroke-width="4"  />
  <rect x="340" y="790" width="20" height="100" fill="#000" stroke="#000" stroke-width="4"  />
  <use x="300" y="750" xlink:href="#AndGate" />

  <rect x="490" y="620" width="20" height="100" fill="#000" stroke="#000" stroke-width="4"  />
  <rect x="440" y="790" width="20" height="100" fill="#000" stroke="#000" stroke-width="4"  />
  <rect x="540" y="790" width="20" height="100" fill="#000" stroke="#000" stroke-width="4"  />
  <use x="500" y="750" xlink:href="#AndGate" />

  <rect x="690" y="620" width="20" height="100" fill="#fff" stroke="#000" stroke-width="4"  />
  <rect x="640" y="790" width="20" height="100" fill="#fff" stroke="#000" stroke-width="4"  />
  <rect x="740" y="790" width="20" height="100" fill="#fff" stroke="#000" stroke-width="4"  />
  <use x="700" y="750" xlink:href="#AndGate" />

  <rect x="90" y="920" width="20" height="100" fill="#000" stroke="#000" stroke-width="4"  />
  <rect x="40" y="1090" width="20" height="100" fill="#000" stroke="#000" stroke-width="4"  />
  <rect x="140" y="1090" width="20" height="100" fill="#fff" stroke="#000" stroke-width="4"  />
  <use x="100" y="1050" xlink:href="#OrGate" />

  <rect x="290" y="920" width="20" height="100" fill="#000" stroke="#000" stroke-width="4"  />
  <rect x="240" y="1090" width="20" height="100" fill="#fff" stroke="#000" stroke-width="4"  />
  <rect x="340" y="1090" width="20" height="100" fill="#000" stroke="#000" stroke-width="4"  />
  <use x="300" y="1050" xlink:href="#OrGate" />

  <rect x="490" y="920" width="20" height="100" fill="#000" stroke="#000" stroke-width="4"  />
  <rect x="440" y="1090" width="20" height="100" fill="#000" stroke="#000" stroke-width="4"  />
  <rect x="540" y="1090" width="20" height="100" fill="#000" stroke="#000" stroke-width="4"  />
  <use x="500" y="1050" xlink:href="#OrGate" />

  <rect x="690" y="920" width="20" height="100" fill="#fff" stroke="#000" stroke-width="4"  />
  <rect x="640" y="1090" width="20" height="100" fill="#fff" stroke="#000" stroke-width="4"  />
  <rect x="740" y="1090" width="20" height="100" fill="#fff" stroke="#000" stroke-width="4"  />
  <use x="700" y="1050" xlink:href="#OrGate" />
</svg>
