  0
SECTION
  2
HEADER
  9
$ACADVER
  1
AC1014
  9
$HANDSEED
  5
FFFF
  9
$MEASUREMENT
 70
     1
  0
ENDSEC
  0
SECTION
  2
TABLES
  0
TABLE
  2
VPORT
  5
8
330
0
100
AcDbSymbolTable
 70
     4
  0
VPORT
  5
2E
330
8
100
AcDbSymbolTableRecord
100
AcDbViewportTableRecord
  2
*ACTIVE
 70
     0
 10
0.0
 20
0.0
 11
1.0
 21
1.0
 12
210.0
 22
148.5
 13
0.0
 23
0.0
 14
10.0
 24
10.0
 15
10.0
 25
10.0
 16
0.0
 26
0.0
 36
1.0
 17
0.0
 27
0.0
 37
0.0
 40
341.0
 41
1.24
 42
50.0
 43
0.0
 44
0.0
 50
0.0
 51
0.0
 71
     0
 72
   100
 73
     1
 74
     3
 75
     0
 76
     0
 77
     0
 78
     0
  0
ENDTAB
  0
TABLE
  2
LTYPE
  5
5
330
0
100
AcDbSymbolTable
 70
     1
  0
LTYPE
  5
14
330
5
100
AcDbSymbolTableRecord
100
AcDbLinetypeTableRecord
  2
BYBLOCK
 70
     0
  3

 72
    65
 73
     0
 40
0.0
  0
LTYPE
  5
15
330
5
100
AcDbSymbolTableRecord
100
AcDbLinetypeTableRecord
  2
BYLAYER
 70
     0
  3

 72
    65
 73
     0
 40
0.0
  0
LTYPE
  5
16
330
5
100
AcDbSymbolTableRecord
100
AcDbLinetypeTableRecord
  2
CONTINUOUS
 70
     0
  3
Solid line
 72
    65
 73
     0
 40
0.0
  0
ENDTAB
  0
TABLE
  2
LAYER
  5
2
100
AcDbSymbolTable
 70
1
  0
LAYER
  5
50
100
AcDbSymbolTableRecord
100
AcDbLayerTableRecord
  2
0
 70
0
  6
CONTINUOUS
  0
ENDTAB
  0
TABLE
  2
STYLE
  5
3
330
0
100
AcDbSymbolTable
 70
     1
  0
STYLE
  5
11
330
3
100
AcDbSymbolTableRecord
100
AcDbTextStyleTableRecord
  2
STANDARD
 70
     0
 40
0.0
 41
1.0
 50
0.0
 71
     0
 42
2.5
  3
txt
  4

  0
ENDTAB
  0
TABLE
  2
VIEW
  5
6
330
0
100
AcDbSymbolTable
 70
     0
  0
ENDTAB
  0
TABLE
  2
UCS
  5
7
330
0
100
AcDbSymbolTable
 70
     0
  0
ENDTAB
  0
TABLE
  2
APPID
  5
9
330
0
100
AcDbSymbolTable
 70
     2
  0
APPID
  5
12
330
9
100
AcDbSymbolTableRecord
100
AcDbRegAppTableRecord
  2
ACAD
 70
     0
  0
ENDTAB
  0
TABLE
  2
DIMSTYLE
  5
A
330
0
100
AcDbSymbolTable
 70
     1
  0
DIMSTYLE
105
27
330
A
100
AcDbSymbolTableRecord
100
AcDbDimStyleTableRecord
  2
ISO-25
 70
     0
  3

  4

  5

  6

  7

 40
1.0
 41
2.5
 42
0.625
 43
3.75
 44
1.25
 45
0.0
 46
0.0
 47
0.0
 48
0.0
140
2.5
141
2.5
142
0.0
143
0.03937007874016
144
1.0
145
0.0
146
1.0
147
0.625
 71
     0
 72
     0
 73
     0
 74
     0
 75
     0
 76
     0
 77
     1
 78
     8
170
     0
171
     3
172
     1
173
     0
174
     0
175
     0
176
     0
177
     0
178
     0
270
     2
271
     2
272
     2
273
     2
274
     3
340
11
275
     0
280
     0
281
     0
282
     0
283
     0
284
     8
285
     0
286
     0
287
     3
288
     0
  0
ENDTAB
  0
TABLE
  2
BLOCK_RECORD
  5
1
330
0
100
AcDbSymbolTable
 70
     1
  0
BLOCK_RECORD
  5
1F
330
1
100
AcDbSymbolTableRecord
100
AcDbBlockTableRecord
  2
*MODEL_SPACE
  0
BLOCK_RECORD
  5
1B
330
1
100
AcDbSymbolTableRecord
100
AcDbBlockTableRecord
  2
*PAPER_SPACE
  0
ENDTAB
  0
ENDSEC
  0
SECTION
  2
BLOCKS
  0
BLOCK
  5
20
330
1F
100
AcDbEntity
  8
0
100
AcDbBlockBegin
  2
*MODEL_SPACE
 70
     0
 10
0.0
 20
0.0
 30
0.0
  3
*MODEL_SPACE
  1

  0
ENDBLK
  5
21
330
1F
100
AcDbEntity
  8
0
100
AcDbBlockEnd
  0
BLOCK
  5
1C
330
1B
100
AcDbEntity
 67
     1
  8
0
100
AcDbBlockBegin
  2
*PAPER_SPACE
  1

  0
ENDBLK
  5
1D
330
1B
100
AcDbEntity
 67
     1
  8
0
100
AcDbBlockEnd
  0
ENDSEC
  0
SECTION
  2
ENTITIES
  0
SPLINE
  5
100
100
AcDbEntity
  8
0
 62
7
100
AcDbSpline
 70
8
 71
3
 72
8
 73
4
 74
0
 40
0
 40
0
 40
0
 40
0
 40
1
 40
1
 40
1
 40
1
 10
20.200000
 20
490.000000
 30
0.0
 10
20.200000
 20
492.652165
 30
0.0
 10
21.253568
 20
495.195704
 30
0.0
 10
23.128932
 20
497.071068
 30
0.0
  0
SPLINE
  5
101
100
AcDbEntity
  8
0
 62
7
100
AcDbSpline
 70
8
 71
3
 72
8
 73
4
 74
0
 40
0
 40
0
 40
0
 40
0
 40
1
 40
1
 40
1
 40
1
 10
23.128932
 20
497.071068
 30
0.0
 10
25.004296
 20
498.946432
 30
0.0
 10
27.547835
 20
500.000000
 30
0.0
 10
30.200000
 20
500.000000
 30
0.0
  0
SPLINE
  5
102
100
AcDbEntity
  8
0
 62
7
100
AcDbSpline
 70
8
 71
3
 72
8
 73
4
 74
0
 40
0
 40
0
 40
0
 40
0
 40
1
 40
1
 40
1
 40
1
 10
30.200000
 20
500.000000
 30
0.0
 10
30.200000
 20
500.000000
 30
0.0
 10
469.800000
 20
500.000000
 30
0.0
 10
469.800000
 20
500.000000
 30
0.0
  0
SPLINE
  5
103
100
AcDbEntity
  8
0
 62
7
100
AcDbSpline
 70
8
 71
3
 72
8
 73
4
 74
0
 40
0
 40
0
 40
0
 40
0
 40
1
 40
1
 40
1
 40
1
 10
469.800000
 20
500.000000
 30
0.0
 10
472.452165
 20
500.000000
 30
0.0
 10
474.995704
 20
498.946432
 30
0.0
 10
476.871068
 20
497.071068
 30
0.0
  0
SPLINE
  5
104
100
AcDbEntity
  8
0
 62
7
100
AcDbSpline
 70
8
 71
3
 72
8
 73
4
 74
0
 40
0
 40
0
 40
0
 40
0
 40
1
 40
1
 40
1
 40
1
 10
476.871068
 20
497.071068
 30
0.0
 10
478.746432
 20
495.195704
 30
0.0
 10
479.800000
 20
492.652165
 30
0.0
 10
479.800000
 20
490.000000
 30
0.0
  0
LWPOLYLINE
  5
105
100
AcDbEntity
  8
0
 62
7
100
AcDbPolyline
 90
2
 70
0
 10
20.200000
 20
479.800000
 30
0.0
 10
20.200000
 20
490.000000
 30
0.0
  0
SPLINE
  5
106
100
AcDbEntity
  8
0
 62
7
100
AcDbSpline
 70
8
 71
3
 72
8
 73
4
 74
0
 40
0
 40
0
 40
0
 40
0
 40
1
 40
1
 40
1
 40
1
 10
490.000000
 20
479.800000
 30
0.0
 10
492.652165
 20
479.800000
 30
0.0
 10
495.195704
 20
478.746432
 30
0.0
 10
497.071068
 20
476.871068
 30
0.0
  0
SPLINE
  5
107
100
AcDbEntity
  8
0
 62
7
100
AcDbSpline
 70
8
 71
3
 72
8
 73
4
 74
0
 40
0
 40
0
 40
0
 40
0
 40
1
 40
1
 40
1
 40
1
 10
497.071068
 20
476.871068
 30
0.0
 10
498.946432
 20
474.995704
 30
0.0
 10
500.000000
 20
472.452165
 30
0.0
 10
500.000000
 20
469.800000
 30
0.0
  0
SPLINE
  5
108
100
AcDbEntity
  8
0
 62
7
100
AcDbSpline
 70
8
 71
3
 72
8
 73
4
 74
0
 40
0
 40
0
 40
0
 40
0
 40
1
 40
1
 40
1
 40
1
 10
500.000000
 20
469.800000
 30
0.0
 10
500.000000
 20
469.800000
 30
0.0
 10
500.000000
 20
30.200000
 30
0.0
 10
500.000000
 20
30.200000
 30
0.0
  0
SPLINE
  5
109
100
AcDbEntity
  8
0
 62
7
100
AcDbSpline
 70
8
 71
3
 72
8
 73
4
 74
0
 40
0
 40
0
 40
0
 40
0
 40
1
 40
1
 40
1
 40
1
 10
500.000000
 20
30.200000
 30
0.0
 10
500.000000
 20
27.547835
 30
0.0
 10
498.946432
 20
25.004296
 30
0.0
 10
497.071068
 20
23.128932
 30
0.0
  0
SPLINE
  5
10a
100
AcDbEntity
  8
0
 62
7
100
AcDbSpline
 70
8
 71
3
 72
8
 73
4
 74
0
 40
0
 40
0
 40
0
 40
0
 40
1
 40
1
 40
1
 40
1
 10
497.071068
 20
23.128932
 30
0.0
 10
495.195704
 20
21.253568
 30
0.0
 10
492.652165
 20
20.200000
 30
0.0
 10
490.000000
 20
20.200000
 30
0.0
  0
LWPOLYLINE
  5
10b
100
AcDbEntity
  8
0
 62
7
100
AcDbPolyline
 90
3
 70
0
 10
479.800000
 20
490.000000
 30
0.0
 10
479.800000
 20
479.800000
 30
0.0
 10
490.000000
 20
479.800000
 30
0.0
  0
SPLINE
  5
10c
100
AcDbEntity
  8
0
 62
7
100
AcDbSpline
 70
8
 71
3
 72
8
 73
4
 74
0
 40
0
 40
0
 40
0
 40
0
 40
1
 40
1
 40
1
 40
1
 10
479.800000
 20
20.200000
 30
0.0
 10
479.800000
 20
20.200000
 30
0.0
 10
479.800000
 20
10.000000
 30
0.0
 10
479.800000
 20
10.000000
 30
0.0
  0
SPLINE
  5
10d
100
AcDbEntity
  8
0
 62
7
100
AcDbSpline
 70
8
 71
3
 72
8
 73
4
 74
0
 40
0
 40
0
 40
0
 40
0
 40
1
 40
1
 40
1
 40
1
 10
479.800000
 20
10.000000
 30
0.0
 10
479.800000
 20
7.347835
 30
0.0
 10
478.746432
 20
4.804296
 30
0.0
 10
476.871068
 20
2.928932
 30
0.0
  0
SPLINE
  5
10e
100
AcDbEntity
  8
0
 62
7
100
AcDbSpline
 70
8
 71
3
 72
8
 73
4
 74
0
 40
0
 40
0
 40
0
 40
0
 40
1
 40
1
 40
1
 40
1
 10
476.871068
 20
2.928932
 30
0.0
 10
474.995704
 20
1.053568
 30
0.0
 10
472.452165
 20
0.000000
 30
0.0
 10
469.800000
 20
0.000000
 30
0.0
  0
LWPOLYLINE
  5
10f
100
AcDbEntity
  8
0
 62
7
100
AcDbPolyline
 90
2
 70
0
 10
490.000000
 20
20.200000
 30
0.0
 10
479.800000
 20
20.200000
 30
0.0
  0
SPLINE
  5
110
100
AcDbEntity
  8
0
 62
7
100
AcDbSpline
 70
8
 71
3
 72
8
 73
4
 74
0
 40
0
 40
0
 40
0
 40
0
 40
1
 40
1
 40
1
 40
1
 10
30.200000
 20
0.000000
 30
0.0
 10
27.547835
 20
0.000000
 30
0.0
 10
25.004296
 20
1.053568
 30
0.0
 10
23.128932
 20
2.928932
 30
0.0
  0
SPLINE
  5
111
100
AcDbEntity
  8
0
 62
7
100
AcDbSpline
 70
8
 71
3
 72
8
 73
4
 74
0
 40
0
 40
0
 40
0
 40
0
 40
1
 40
1
 40
1
 40
1
 10
23.128932
 20
2.928932
 30
0.0
 10
21.253568
 20
4.804296
 30
0.0
 10
20.200000
 20
7.347835
 30
0.0
 10
20.200000
 20
10.000000
 30
0.0
  0
LWPOLYLINE
  5
112
100
AcDbEntity
  8
0
 62
7
100
AcDbPolyline
 90
2
 70
0
 10
469.800000
 20
0.000000
 30
0.0
 10
30.200000
 20
0.000000
 30
0.0
  0
SPLINE
  5
113
100
AcDbEntity
  8
0
 62
7
100
AcDbSpline
 70
8
 71
3
 72
8
 73
4
 74
0
 40
0
 40
0
 40
0
 40
0
 40
1
 40
1
 40
1
 40
1
 10
20.200000
 20
20.200000
 30
0.0
 10
20.200000
 20
20.200000
 30
0.0
 10
10.000000
 20
20.200000
 30
0.0
 10
10.000000
 20
20.200000
 30
0.0
  0
SPLINE
  5
114
100
AcDbEntity
  8
0
 62
7
100
AcDbSpline
 70
8
 71
3
 72
8
 73
4
 74
0
 40
0
 40
0
 40
0
 40
0
 40
1
 40
1
 40
1
 40
1
 10
10.000000
 20
20.200000
 30
0.0
 10
7.347835
 20
20.200000
 30
0.0
 10
4.804296
 20
21.253568
 30
0.0
 10
2.928932
 20
23.128932
 30
0.0
  0
SPLINE
  5
115
100
AcDbEntity
  8
0
 62
7
100
AcDbSpline
 70
8
 71
3
 72
8
 73
4
 74
0
 40
0
 40
0
 40
0
 40
0
 40
1
 40
1
 40
1
 40
1
 10
2.928932
 20
23.128932
 30
0.0
 10
1.053568
 20
25.004296
 30
0.0
 10
0.000000
 20
27.547835
 30
0.0
 10
0.000000
 20
30.200000
 30
0.0
  0
LWPOLYLINE
  5
116
100
AcDbEntity
  8
0
 62
7
100
AcDbPolyline
 90
2
 70
0
 10
20.200000
 20
10.000000
 30
0.0
 10
20.200000
 20
20.200000
 30
0.0
  0
SPLINE
  5
117
100
AcDbEntity
  8
0
 62
7
100
AcDbSpline
 70
8
 71
3
 72
8
 73
4
 74
0
 40
0
 40
0
 40
0
 40
0
 40
1
 40
1
 40
1
 40
1
 10
0.000000
 20
469.800000
 30
0.0
 10
-0.000000
 20
472.452165
 30
0.0
 10
1.053568
 20
474.995704
 30
0.0
 10
2.928932
 20
476.871068
 30
0.0
  0
SPLINE
  5
118
100
AcDbEntity
  8
0
 62
7
100
AcDbSpline
 70
8
 71
3
 72
8
 73
4
 74
0
 40
0
 40
0
 40
0
 40
0
 40
1
 40
1
 40
1
 40
1
 10
2.928932
 20
476.871068
 30
0.0
 10
4.804296
 20
478.746432
 30
0.0
 10
7.347835
 20
479.800000
 30
0.0
 10
10.000000
 20
479.800000
 30
0.0
  0
LWPOLYLINE
  5
119
100
AcDbEntity
  8
0
 62
7
100
AcDbPolyline
 90
2
 70
0
 10
0.000000
 20
30.200000
 30
0.0
 10
0.000000
 20
469.800000
 30
0.0
  0
SPLINE
  5
11a
100
AcDbEntity
  8
0
 62
7
100
AcDbSpline
 70
8
 71
3
 72
8
 73
4
 74
0
 40
0
 40
0
 40
0
 40
0
 40
1
 40
1
 40
1
 40
1
 10
13.000000
 20
467.000000
 30
0.0
 10
13.000000
 20
468.071797
 30
0.0
 10
12.428203
 20
469.062178
 30
0.0
 10
11.500000
 20
469.598076
 30
0.0
  0
SPLINE
  5
11b
100
AcDbEntity
  8
0
 62
7
100
AcDbSpline
 70
8
 71
3
 72
8
 73
4
 74
0
 40
0
 40
0
 40
0
 40
0
 40
1
 40
1
 40
1
 40
1
 10
11.500000
 20
469.598076
 30
0.0
 10
10.571797
 20
470.133975
 30
0.0
 10
9.428203
 20
470.133975
 30
0.0
 10
8.500000
 20
469.598076
 30
0.0
  0
SPLINE
  5
11c
100
AcDbEntity
  8
0
 62
7
100
AcDbSpline
 70
8
 71
3
 72
8
 73
4
 74
0
 40
0
 40
0
 40
0
 40
0
 40
1
 40
1
 40
1
 40
1
 10
8.500000
 20
469.598076
 30
0.0
 10
7.571797
 20
469.062178
 30
0.0
 10
7.000000
 20
468.071797
 30
0.0
 10
7.000000
 20
467.000000
 30
0.0
  0
SPLINE
  5
11d
100
AcDbEntity
  8
0
 62
7
100
AcDbSpline
 70
8
 71
3
 72
8
 73
4
 74
0
 40
0
 40
0
 40
0
 40
0
 40
1
 40
1
 40
1
 40
1
 10
7.000000
 20
467.000000
 30
0.0
 10
7.000000
 20
467.000000
 30
0.0
 10
7.000000
 20
393.000000
 30
0.0
 10
7.000000
 20
393.000000
 30
0.0
  0
SPLINE
  5
11e
100
AcDbEntity
  8
0
 62
7
100
AcDbSpline
 70
8
 71
3
 72
8
 73
4
 74
0
 40
0
 40
0
 40
0
 40
0
 40
1
 40
1
 40
1
 40
1
 10
7.000000
 20
393.000000
 30
0.0
 10
7.000000
 20
391.928203
 30
0.0
 10
7.571797
 20
390.937822
 30
0.0
 10
8.500000
 20
390.401924
 30
0.0
  0
SPLINE
  5
11f
100
AcDbEntity
  8
0
 62
7
100
AcDbSpline
 70
8
 71
3
 72
8
 73
4
 74
0
 40
0
 40
0
 40
0
 40
0
 40
1
 40
1
 40
1
 40
1
 10
8.500000
 20
390.401924
 30
0.0
 10
9.428203
 20
389.866025
 30
0.0
 10
10.571797
 20
389.866025
 30
0.0
 10
11.500000
 20
390.401924
 30
0.0
  0
SPLINE
  5
120
100
AcDbEntity
  8
0
 62
7
100
AcDbSpline
 70
8
 71
3
 72
8
 73
4
 74
0
 40
0
 40
0
 40
0
 40
0
 40
1
 40
1
 40
1
 40
1
 10
11.500000
 20
390.401924
 30
0.0
 10
12.428203
 20
390.937822
 30
0.0
 10
13.000000
 20
391.928203
 30
0.0
 10
13.000000
 20
393.000000
 30
0.0
  0
LWPOLYLINE
  5
121
100
AcDbEntity
  8
0
 62
7
100
AcDbPolyline
 90
2
 70
0
 10
10.000000
 20
479.800000
 30
0.0
 10
20.200000
 20
479.800000
 30
0.0
  0
SPLINE
  5
122
100
AcDbEntity
  8
0
 62
7
100
AcDbSpline
 70
8
 71
3
 72
8
 73
4
 74
0
 40
0
 40
0
 40
0
 40
0
 40
1
 40
1
 40
1
 40
1
 10
13.000000
 20
337.000000
 30
0.0
 10
13.000000
 20
338.071797
 30
0.0
 10
12.428203
 20
339.062178
 30
0.0
 10
11.500000
 20
339.598076
 30
0.0
  0
SPLINE
  5
123
100
AcDbEntity
  8
0
 62
7
100
AcDbSpline
 70
8
 71
3
 72
8
 73
4
 74
0
 40
0
 40
0
 40
0
 40
0
 40
1
 40
1
 40
1
 40
1
 10
11.500000
 20
339.598076
 30
0.0
 10
10.571797
 20
340.133975
 30
0.0
 10
9.428203
 20
340.133975
 30
0.0
 10
8.500000
 20
339.598076
 30
0.0
  0
SPLINE
  5
124
100
AcDbEntity
  8
0
 62
7
100
AcDbSpline
 70
8
 71
3
 72
8
 73
4
 74
0
 40
0
 40
0
 40
0
 40
0
 40
1
 40
1
 40
1
 40
1
 10
8.500000
 20
339.598076
 30
0.0
 10
7.571797
 20
339.062178
 30
0.0
 10
7.000000
 20
338.071797
 30
0.0
 10
7.000000
 20
337.000000
 30
0.0
  0
SPLINE
  5
125
100
AcDbEntity
  8
0
 62
7
100
AcDbSpline
 70
8
 71
3
 72
8
 73
4
 74
0
 40
0
 40
0
 40
0
 40
0
 40
1
 40
1
 40
1
 40
1
 10
7.000000
 20
337.000000
 30
0.0
 10
7.000000
 20
337.000000
 30
0.0
 10
7.000000
 20
263.000000
 30
0.0
 10
7.000000
 20
263.000000
 30
0.0
  0
SPLINE
  5
126
100
AcDbEntity
  8
0
 62
7
100
AcDbSpline
 70
8
 71
3
 72
8
 73
4
 74
0
 40
0
 40
0
 40
0
 40
0
 40
1
 40
1
 40
1
 40
1
 10
7.000000
 20
263.000000
 30
0.0
 10
7.000000
 20
261.928203
 30
0.0
 10
7.571797
 20
260.937822
 30
0.0
 10
8.500000
 20
260.401924
 30
0.0
  0
SPLINE
  5
127
100
AcDbEntity
  8
0
 62
7
100
AcDbSpline
 70
8
 71
3
 72
8
 73
4
 74
0
 40
0
 40
0
 40
0
 40
0
 40
1
 40
1
 40
1
 40
1
 10
8.500000
 20
260.401924
 30
0.0
 10
9.428203
 20
259.866025
 30
0.0
 10
10.571797
 20
259.866025
 30
0.0
 10
11.500000
 20
260.401924
 30
0.0
  0
SPLINE
  5
128
100
AcDbEntity
  8
0
 62
7
100
AcDbSpline
 70
8
 71
3
 72
8
 73
4
 74
0
 40
0
 40
0
 40
0
 40
0
 40
1
 40
1
 40
1
 40
1
 10
11.500000
 20
260.401924
 30
0.0
 10
12.428203
 20
260.937822
 30
0.0
 10
13.000000
 20
261.928203
 30
0.0
 10
13.000000
 20
263.000000
 30
0.0
  0
LWPOLYLINE
  5
129
100
AcDbEntity
  8
0
 62
7
100
AcDbPolyline
 90
2
 70
0
 10
13.000000
 20
393.000000
 30
0.0
 10
13.000000
 20
467.000000
 30
0.0
  0
SPLINE
  5
12a
100
AcDbEntity
  8
0
 62
7
100
AcDbSpline
 70
8
 71
3
 72
8
 73
4
 74
0
 40
0
 40
0
 40
0
 40
0
 40
1
 40
1
 40
1
 40
1
 10
13.000000
 20
237.000000
 30
0.0
 10
13.000000
 20
238.071797
 30
0.0
 10
12.428203
 20
239.062178
 30
0.0
 10
11.500000
 20
239.598076
 30
0.0
  0
SPLINE
  5
12b
100
AcDbEntity
  8
0
 62
7
100
AcDbSpline
 70
8
 71
3
 72
8
 73
4
 74
0
 40
0
 40
0
 40
0
 40
0
 40
1
 40
1
 40
1
 40
1
 10
11.500000
 20
239.598076
 30
0.0
 10
10.571797
 20
240.133975
 30
0.0
 10
9.428203
 20
240.133975
 30
0.0
 10
8.500000
 20
239.598076
 30
0.0
  0
SPLINE
  5
12c
100
AcDbEntity
  8
0
 62
7
100
AcDbSpline
 70
8
 71
3
 72
8
 73
4
 74
0
 40
0
 40
0
 40
0
 40
0
 40
1
 40
1
 40
1
 40
1
 10
8.500000
 20
239.598076
 30
0.0
 10
7.571797
 20
239.062178
 30
0.0
 10
7.000000
 20
238.071797
 30
0.0
 10
7.000000
 20
237.000000
 30
0.0
  0
SPLINE
  5
12d
100
AcDbEntity
  8
0
 62
7
100
AcDbSpline
 70
8
 71
3
 72
8
 73
4
 74
0
 40
0
 40
0
 40
0
 40
0
 40
1
 40
1
 40
1
 40
1
 10
7.000000
 20
237.000000
 30
0.0
 10
7.000000
 20
237.000000
 30
0.0
 10
7.000000
 20
163.000000
 30
0.0
 10
7.000000
 20
163.000000
 30
0.0
  0
SPLINE
  5
12e
100
AcDbEntity
  8
0
 62
7
100
AcDbSpline
 70
8
 71
3
 72
8
 73
4
 74
0
 40
0
 40
0
 40
0
 40
0
 40
1
 40
1
 40
1
 40
1
 10
7.000000
 20
163.000000
 30
0.0
 10
7.000000
 20
161.928203
 30
0.0
 10
7.571797
 20
160.937822
 30
0.0
 10
8.500000
 20
160.401924
 30
0.0
  0
SPLINE
  5
12f
100
AcDbEntity
  8
0
 62
7
100
AcDbSpline
 70
8
 71
3
 72
8
 73
4
 74
0
 40
0
 40
0
 40
0
 40
0
 40
1
 40
1
 40
1
 40
1
 10
8.500000
 20
160.401924
 30
0.0
 10
9.428203
 20
159.866025
 30
0.0
 10
10.571797
 20
159.866025
 30
0.0
 10
11.500000
 20
160.401924
 30
0.0
  0
SPLINE
  5
130
100
AcDbEntity
  8
0
 62
7
100
AcDbSpline
 70
8
 71
3
 72
8
 73
4
 74
0
 40
0
 40
0
 40
0
 40
0
 40
1
 40
1
 40
1
 40
1
 10
11.500000
 20
160.401924
 30
0.0
 10
12.428203
 20
160.937822
 30
0.0
 10
13.000000
 20
161.928203
 30
0.0
 10
13.000000
 20
163.000000
 30
0.0
  0
LWPOLYLINE
  5
131
100
AcDbEntity
  8
0
 62
7
100
AcDbPolyline
 90
2
 70
0
 10
13.000000
 20
263.000000
 30
0.0
 10
13.000000
 20
337.000000
 30
0.0
  0
SPLINE
  5
132
100
AcDbEntity
  8
0
 62
7
100
AcDbSpline
 70
8
 71
3
 72
8
 73
4
 74
0
 40
0
 40
0
 40
0
 40
0
 40
1
 40
1
 40
1
 40
1
 10
13.000000
 20
107.000000
 30
0.0
 10
13.000000
 20
108.071797
 30
0.0
 10
12.428203
 20
109.062178
 30
0.0
 10
11.500000
 20
109.598076
 30
0.0
  0
SPLINE
  5
133
100
AcDbEntity
  8
0
 62
7
100
AcDbSpline
 70
8
 71
3
 72
8
 73
4
 74
0
 40
0
 40
0
 40
0
 40
0
 40
1
 40
1
 40
1
 40
1
 10
11.500000
 20
109.598076
 30
0.0
 10
10.571797
 20
110.133975
 30
0.0
 10
9.428203
 20
110.133975
 30
0.0
 10
8.500000
 20
109.598076
 30
0.0
  0
SPLINE
  5
134
100
AcDbEntity
  8
0
 62
7
100
AcDbSpline
 70
8
 71
3
 72
8
 73
4
 74
0
 40
0
 40
0
 40
0
 40
0
 40
1
 40
1
 40
1
 40
1
 10
8.500000
 20
109.598076
 30
0.0
 10
7.571797
 20
109.062178
 30
0.0
 10
7.000000
 20
108.071797
 30
0.0
 10
7.000000
 20
107.000000
 30
0.0
  0
SPLINE
  5
135
100
AcDbEntity
  8
0
 62
7
100
AcDbSpline
 70
8
 71
3
 72
8
 73
4
 74
0
 40
0
 40
0
 40
0
 40
0
 40
1
 40
1
 40
1
 40
1
 10
7.000000
 20
107.000000
 30
0.0
 10
7.000000
 20
107.000000
 30
0.0
 10
7.000000
 20
33.000000
 30
0.0
 10
7.000000
 20
33.000000
 30
0.0
  0
SPLINE
  5
136
100
AcDbEntity
  8
0
 62
7
100
AcDbSpline
 70
8
 71
3
 72
8
 73
4
 74
0
 40
0
 40
0
 40
0
 40
0
 40
1
 40
1
 40
1
 40
1
 10
7.000000
 20
33.000000
 30
0.0
 10
7.000000
 20
31.928203
 30
0.0
 10
7.571797
 20
30.937822
 30
0.0
 10
8.500000
 20
30.401924
 30
0.0
  0
SPLINE
  5
137
100
AcDbEntity
  8
0
 62
7
100
AcDbSpline
 70
8
 71
3
 72
8
 73
4
 74
0
 40
0
 40
0
 40
0
 40
0
 40
1
 40
1
 40
1
 40
1
 10
8.500000
 20
30.401924
 30
0.0
 10
9.428203
 20
29.866025
 30
0.0
 10
10.571797
 20
29.866025
 30
0.0
 10
11.500000
 20
30.401924
 30
0.0
  0
SPLINE
  5
138
100
AcDbEntity
  8
0
 62
7
100
AcDbSpline
 70
8
 71
3
 72
8
 73
4
 74
0
 40
0
 40
0
 40
0
 40
0
 40
1
 40
1
 40
1
 40
1
 10
11.500000
 20
30.401924
 30
0.0
 10
12.428203
 20
30.937822
 30
0.0
 10
13.000000
 20
31.928203
 30
0.0
 10
13.000000
 20
33.000000
 30
0.0
  0
LWPOLYLINE
  5
139
100
AcDbEntity
  8
0
 62
7
100
AcDbPolyline
 90
2
 70
0
 10
13.000000
 20
163.000000
 30
0.0
 10
13.000000
 20
237.000000
 30
0.0
  0
SPLINE
  5
13a
100
AcDbEntity
  8
0
 62
7
100
AcDbSpline
 70
8
 71
3
 72
8
 73
4
 74
0
 40
0
 40
0
 40
0
 40
0
 40
1
 40
1
 40
1
 40
1
 10
493.000000
 20
467.000000
 30
0.0
 10
493.000000
 20
468.071797
 30
0.0
 10
492.428203
 20
469.062178
 30
0.0
 10
491.500000
 20
469.598076
 30
0.0
  0
SPLINE
  5
13b
100
AcDbEntity
  8
0
 62
7
100
AcDbSpline
 70
8
 71
3
 72
8
 73
4
 74
0
 40
0
 40
0
 40
0
 40
0
 40
1
 40
1
 40
1
 40
1
 10
491.500000
 20
469.598076
 30
0.0
 10
490.571797
 20
470.133975
 30
0.0
 10
489.428203
 20
470.133975
 30
0.0
 10
488.500000
 20
469.598076
 30
0.0
  0
SPLINE
  5
13c
100
AcDbEntity
  8
0
 62
7
100
AcDbSpline
 70
8
 71
3
 72
8
 73
4
 74
0
 40
0
 40
0
 40
0
 40
0
 40
1
 40
1
 40
1
 40
1
 10
488.500000
 20
469.598076
 30
0.0
 10
487.571797
 20
469.062178
 30
0.0
 10
487.000000
 20
468.071797
 30
0.0
 10
487.000000
 20
467.000000
 30
0.0
  0
SPLINE
  5
13d
100
AcDbEntity
  8
0
 62
7
100
AcDbSpline
 70
8
 71
3
 72
8
 73
4
 74
0
 40
0
 40
0
 40
0
 40
0
 40
1
 40
1
 40
1
 40
1
 10
487.000000
 20
467.000000
 30
0.0
 10
487.000000
 20
467.000000
 30
0.0
 10
487.000000
 20
393.000000
 30
0.0
 10
487.000000
 20
393.000000
 30
0.0
  0
SPLINE
  5
13e
100
AcDbEntity
  8
0
 62
7
100
AcDbSpline
 70
8
 71
3
 72
8
 73
4
 74
0
 40
0
 40
0
 40
0
 40
0
 40
1
 40
1
 40
1
 40
1
 10
487.000000
 20
393.000000
 30
0.0
 10
487.000000
 20
391.928203
 30
0.0
 10
487.571797
 20
390.937822
 30
0.0
 10
488.500000
 20
390.401924
 30
0.0
  0
SPLINE
  5
13f
100
AcDbEntity
  8
0
 62
7
100
AcDbSpline
 70
8
 71
3
 72
8
 73
4
 74
0
 40
0
 40
0
 40
0
 40
0
 40
1
 40
1
 40
1
 40
1
 10
488.500000
 20
390.401924
 30
0.0
 10
489.428203
 20
389.866025
 30
0.0
 10
490.571797
 20
389.866025
 30
0.0
 10
491.500000
 20
390.401924
 30
0.0
  0
SPLINE
  5
140
100
AcDbEntity
  8
0
 62
7
100
AcDbSpline
 70
8
 71
3
 72
8
 73
4
 74
0
 40
0
 40
0
 40
0
 40
0
 40
1
 40
1
 40
1
 40
1
 10
491.500000
 20
390.401924
 30
0.0
 10
492.428203
 20
390.937822
 30
0.0
 10
493.000000
 20
391.928203
 30
0.0
 10
493.000000
 20
393.000000
 30
0.0
  0
LWPOLYLINE
  5
141
100
AcDbEntity
  8
0
 62
7
100
AcDbPolyline
 90
2
 70
0
 10
13.000000
 20
33.000000
 30
0.0
 10
13.000000
 20
107.000000
 30
0.0
  0
SPLINE
  5
142
100
AcDbEntity
  8
0
 62
7
100
AcDbSpline
 70
8
 71
3
 72
8
 73
4
 74
0
 40
0
 40
0
 40
0
 40
0
 40
1
 40
1
 40
1
 40
1
 10
493.000000
 20
337.000000
 30
0.0
 10
493.000000
 20
338.071797
 30
0.0
 10
492.428203
 20
339.062178
 30
0.0
 10
491.500000
 20
339.598076
 30
0.0
  0
SPLINE
  5
143
100
AcDbEntity
  8
0
 62
7
100
AcDbSpline
 70
8
 71
3
 72
8
 73
4
 74
0
 40
0
 40
0
 40
0
 40
0
 40
1
 40
1
 40
1
 40
1
 10
491.500000
 20
339.598076
 30
0.0
 10
490.571797
 20
340.133975
 30
0.0
 10
489.428203
 20
340.133975
 30
0.0
 10
488.500000
 20
339.598076
 30
0.0
  0
SPLINE
  5
144
100
AcDbEntity
  8
0
 62
7
100
AcDbSpline
 70
8
 71
3
 72
8
 73
4
 74
0
 40
0
 40
0
 40
0
 40
0
 40
1
 40
1
 40
1
 40
1
 10
488.500000
 20
339.598076
 30
0.0
 10
487.571797
 20
339.062178
 30
0.0
 10
487.000000
 20
338.071797
 30
0.0
 10
487.000000
 20
337.000000
 30
0.0
  0
SPLINE
  5
145
100
AcDbEntity
  8
0
 62
7
100
AcDbSpline
 70
8
 71
3
 72
8
 73
4
 74
0
 40
0
 40
0
 40
0
 40
0
 40
1
 40
1
 40
1
 40
1
 10
487.000000
 20
337.000000
 30
0.0
 10
487.000000
 20
337.000000
 30
0.0
 10
487.000000
 20
263.000000
 30
0.0
 10
487.000000
 20
263.000000
 30
0.0
  0
SPLINE
  5
146
100
AcDbEntity
  8
0
 62
7
100
AcDbSpline
 70
8
 71
3
 72
8
 73
4
 74
0
 40
0
 40
0
 40
0
 40
0
 40
1
 40
1
 40
1
 40
1
 10
487.000000
 20
263.000000
 30
0.0
 10
487.000000
 20
261.928203
 30
0.0
 10
487.571797
 20
260.937822
 30
0.0
 10
488.500000
 20
260.401924
 30
0.0
  0
SPLINE
  5
147
100
AcDbEntity
  8
0
 62
7
100
AcDbSpline
 70
8
 71
3
 72
8
 73
4
 74
0
 40
0
 40
0
 40
0
 40
0
 40
1
 40
1
 40
1
 40
1
 10
488.500000
 20
260.401924
 30
0.0
 10
489.428203
 20
259.866025
 30
0.0
 10
490.571797
 20
259.866025
 30
0.0
 10
491.500000
 20
260.401924
 30
0.0
  0
SPLINE
  5
148
100
AcDbEntity
  8
0
 62
7
100
AcDbSpline
 70
8
 71
3
 72
8
 73
4
 74
0
 40
0
 40
0
 40
0
 40
0
 40
1
 40
1
 40
1
 40
1
 10
491.500000
 20
260.401924
 30
0.0
 10
492.428203
 20
260.937822
 30
0.0
 10
493.000000
 20
261.928203
 30
0.0
 10
493.000000
 20
263.000000
 30
0.0
  0
LWPOLYLINE
  5
149
100
AcDbEntity
  8
0
 62
7
100
AcDbPolyline
 90
2
 70
0
 10
493.000000
 20
393.000000
 30
0.0
 10
493.000000
 20
467.000000
 30
0.0
  0
SPLINE
  5
14a
100
AcDbEntity
  8
0
 62
7
100
AcDbSpline
 70
8
 71
3
 72
8
 73
4
 74
0
 40
0
 40
0
 40
0
 40
0
 40
1
 40
1
 40
1
 40
1
 10
493.000000
 20
237.000000
 30
0.0
 10
493.000000
 20
238.071797
 30
0.0
 10
492.428203
 20
239.062178
 30
0.0
 10
491.500000
 20
239.598076
 30
0.0
  0
SPLINE
  5
14b
100
AcDbEntity
  8
0
 62
7
100
AcDbSpline
 70
8
 71
3
 72
8
 73
4
 74
0
 40
0
 40
0
 40
0
 40
0
 40
1
 40
1
 40
1
 40
1
 10
491.500000
 20
239.598076
 30
0.0
 10
490.571797
 20
240.133975
 30
0.0
 10
489.428203
 20
240.133975
 30
0.0
 10
488.500000
 20
239.598076
 30
0.0
  0
SPLINE
  5
14c
100
AcDbEntity
  8
0
 62
7
100
AcDbSpline
 70
8
 71
3
 72
8
 73
4
 74
0
 40
0
 40
0
 40
0
 40
0
 40
1
 40
1
 40
1
 40
1
 10
488.500000
 20
239.598076
 30
0.0
 10
487.571797
 20
239.062178
 30
0.0
 10
487.000000
 20
238.071797
 30
0.0
 10
487.000000
 20
237.000000
 30
0.0
  0
SPLINE
  5
14d
100
AcDbEntity
  8
0
 62
7
100
AcDbSpline
 70
8
 71
3
 72
8
 73
4
 74
0
 40
0
 40
0
 40
0
 40
0
 40
1
 40
1
 40
1
 40
1
 10
487.000000
 20
237.000000
 30
0.0
 10
487.000000
 20
237.000000
 30
0.0
 10
487.000000
 20
163.000000
 30
0.0
 10
487.000000
 20
163.000000
 30
0.0
  0
SPLINE
  5
14e
100
AcDbEntity
  8
0
 62
7
100
AcDbSpline
 70
8
 71
3
 72
8
 73
4
 74
0
 40
0
 40
0
 40
0
 40
0
 40
1
 40
1
 40
1
 40
1
 10
487.000000
 20
163.000000
 30
0.0
 10
487.000000
 20
161.928203
 30
0.0
 10
487.571797
 20
160.937822
 30
0.0
 10
488.500000
 20
160.401924
 30
0.0
  0
SPLINE
  5
14f
100
AcDbEntity
  8
0
 62
7
100
AcDbSpline
 70
8
 71
3
 72
8
 73
4
 74
0
 40
0
 40
0
 40
0
 40
0
 40
1
 40
1
 40
1
 40
1
 10
488.500000
 20
160.401924
 30
0.0
 10
489.428203
 20
159.866025
 30
0.0
 10
490.571797
 20
159.866025
 30
0.0
 10
491.500000
 20
160.401924
 30
0.0
  0
SPLINE
  5
150
100
AcDbEntity
  8
0
 62
7
100
AcDbSpline
 70
8
 71
3
 72
8
 73
4
 74
0
 40
0
 40
0
 40
0
 40
0
 40
1
 40
1
 40
1
 40
1
 10
491.500000
 20
160.401924
 30
0.0
 10
492.428203
 20
160.937822
 30
0.0
 10
493.000000
 20
161.928203
 30
0.0
 10
493.000000
 20
163.000000
 30
0.0
  0
LWPOLYLINE
  5
151
100
AcDbEntity
  8
0
 62
7
100
AcDbPolyline
 90
2
 70
0
 10
493.000000
 20
263.000000
 30
0.0
 10
493.000000
 20
337.000000
 30
0.0
  0
SPLINE
  5
152
100
AcDbEntity
  8
0
 62
7
100
AcDbSpline
 70
8
 71
3
 72
8
 73
4
 74
0
 40
0
 40
0
 40
0
 40
0
 40
1
 40
1
 40
1
 40
1
 10
493.000000
 20
107.000000
 30
0.0
 10
493.000000
 20
108.071797
 30
0.0
 10
492.428203
 20
109.062178
 30
0.0
 10
491.500000
 20
109.598076
 30
0.0
  0
SPLINE
  5
153
100
AcDbEntity
  8
0
 62
7
100
AcDbSpline
 70
8
 71
3
 72
8
 73
4
 74
0
 40
0
 40
0
 40
0
 40
0
 40
1
 40
1
 40
1
 40
1
 10
491.500000
 20
109.598076
 30
0.0
 10
490.571797
 20
110.133975
 30
0.0
 10
489.428203
 20
110.133975
 30
0.0
 10
488.500000
 20
109.598076
 30
0.0
  0
SPLINE
  5
154
100
AcDbEntity
  8
0
 62
7
100
AcDbSpline
 70
8
 71
3
 72
8
 73
4
 74
0
 40
0
 40
0
 40
0
 40
0
 40
1
 40
1
 40
1
 40
1
 10
488.500000
 20
109.598076
 30
0.0
 10
487.571797
 20
109.062178
 30
0.0
 10
487.000000
 20
108.071797
 30
0.0
 10
487.000000
 20
107.000000
 30
0.0
  0
SPLINE
  5
155
100
AcDbEntity
  8
0
 62
7
100
AcDbSpline
 70
8
 71
3
 72
8
 73
4
 74
0
 40
0
 40
0
 40
0
 40
0
 40
1
 40
1
 40
1
 40
1
 10
487.000000
 20
107.000000
 30
0.0
 10
487.000000
 20
107.000000
 30
0.0
 10
487.000000
 20
33.000000
 30
0.0
 10
487.000000
 20
33.000000
 30
0.0
  0
SPLINE
  5
156
100
AcDbEntity
  8
0
 62
7
100
AcDbSpline
 70
8
 71
3
 72
8
 73
4
 74
0
 40
0
 40
0
 40
0
 40
0
 40
1
 40
1
 40
1
 40
1
 10
487.000000
 20
33.000000
 30
0.0
 10
487.000000
 20
31.928203
 30
0.0
 10
487.571797
 20
30.937822
 30
0.0
 10
488.500000
 20
30.401924
 30
0.0
  0
SPLINE
  5
157
100
AcDbEntity
  8
0
 62
7
100
AcDbSpline
 70
8
 71
3
 72
8
 73
4
 74
0
 40
0
 40
0
 40
0
 40
0
 40
1
 40
1
 40
1
 40
1
 10
488.500000
 20
30.401924
 30
0.0
 10
489.428203
 20
29.866025
 30
0.0
 10
490.571797
 20
29.866025
 30
0.0
 10
491.500000
 20
30.401924
 30
0.0
  0
SPLINE
  5
158
100
AcDbEntity
  8
0
 62
7
100
AcDbSpline
 70
8
 71
3
 72
8
 73
4
 74
0
 40
0
 40
0
 40
0
 40
0
 40
1
 40
1
 40
1
 40
1
 10
491.500000
 20
30.401924
 30
0.0
 10
492.428203
 20
30.937822
 30
0.0
 10
493.000000
 20
31.928203
 30
0.0
 10
493.000000
 20
33.000000
 30
0.0
  0
LWPOLYLINE
  5
159
100
AcDbEntity
  8
0
 62
7
100
AcDbPolyline
 90
2
 70
0
 10
493.000000
 20
163.000000
 30
0.0
 10
493.000000
 20
237.000000
 30
0.0
  0
SPLINE
  5
15a
100
AcDbEntity
  8
0
 62
7
100
AcDbSpline
 70
8
 71
3
 72
8
 73
4
 74
0
 40
0
 40
0
 40
0
 40
0
 40
1
 40
1
 40
1
 40
1
 10
33.000000
 20
493.000000
 30
0.0
 10
31.928203
 20
493.000000
 30
0.0
 10
30.937822
 20
492.428203
 30
0.0
 10
30.401924
 20
491.500000
 30
0.0
  0
SPLINE
  5
15b
100
AcDbEntity
  8
0
 62
7
100
AcDbSpline
 70
8
 71
3
 72
8
 73
4
 74
0
 40
0
 40
0
 40
0
 40
0
 40
1
 40
1
 40
1
 40
1
 10
30.401924
 20
491.500000
 30
0.0
 10
29.866025
 20
490.571797
 30
0.0
 10
29.866025
 20
489.428203
 30
0.0
 10
30.401924
 20
488.500000
 30
0.0
  0
SPLINE
  5
15c
100
AcDbEntity
  8
0
 62
7
100
AcDbSpline
 70
8
 71
3
 72
8
 73
4
 74
0
 40
0
 40
0
 40
0
 40
0
 40
1
 40
1
 40
1
 40
1
 10
30.401924
 20
488.500000
 30
0.0
 10
30.937822
 20
487.571797
 30
0.0
 10
31.928203
 20
487.000000
 30
0.0
 10
33.000000
 20
487.000000
 30
0.0
  0
LWPOLYLINE
  5
15d
100
AcDbEntity
  8
0
 62
7
100
AcDbPolyline
 90
2
 70
0
 10
493.000000
 20
33.000000
 30
0.0
 10
493.000000
 20
107.000000
 30
0.0
  0
SPLINE
  5
15e
100
AcDbEntity
  8
0
 62
7
100
AcDbSpline
 70
8
 71
3
 72
8
 73
4
 74
0
 40
0
 40
0
 40
0
 40
0
 40
1
 40
1
 40
1
 40
1
 10
107.000000
 20
487.000000
 30
0.0
 10
108.071797
 20
487.000000
 30
0.0
 10
109.062178
 20
487.571797
 30
0.0
 10
109.598076
 20
488.500000
 30
0.0
  0
SPLINE
  5
15f
100
AcDbEntity
  8
0
 62
7
100
AcDbSpline
 70
8
 71
3
 72
8
 73
4
 74
0
 40
0
 40
0
 40
0
 40
0
 40
1
 40
1
 40
1
 40
1
 10
109.598076
 20
488.500000
 30
0.0
 10
110.133975
 20
489.428203
 30
0.0
 10
110.133975
 20
490.571797
 30
0.0
 10
109.598076
 20
491.500000
 30
0.0
  0
SPLINE
  5
160
100
AcDbEntity
  8
0
 62
7
100
AcDbSpline
 70
8
 71
3
 72
8
 73
4
 74
0
 40
0
 40
0
 40
0
 40
0
 40
1
 40
1
 40
1
 40
1
 10
109.598076
 20
491.500000
 30
0.0
 10
109.062178
 20
492.428203
 30
0.0
 10
108.071797
 20
493.000000
 30
0.0
 10
107.000000
 20
493.000000
 30
0.0
  0
LWPOLYLINE
  5
161
100
AcDbEntity
  8
0
 62
7
100
AcDbPolyline
 90
2
 70
0
 10
33.000000
 20
487.000000
 30
0.0
 10
107.000000
 20
487.000000
 30
0.0
  0
SPLINE
  5
162
100
AcDbEntity
  8
0
 62
7
100
AcDbSpline
 70
8
 71
3
 72
8
 73
4
 74
0
 40
0
 40
0
 40
0
 40
0
 40
1
 40
1
 40
1
 40
1
 10
163.000000
 20
493.000000
 30
0.0
 10
161.928203
 20
493.000000
 30
0.0
 10
160.937822
 20
492.428203
 30
0.0
 10
160.401924
 20
491.500000
 30
0.0
  0
SPLINE
  5
163
100
AcDbEntity
  8
0
 62
7
100
AcDbSpline
 70
8
 71
3
 72
8
 73
4
 74
0
 40
0
 40
0
 40
0
 40
0
 40
1
 40
1
 40
1
 40
1
 10
160.401924
 20
491.500000
 30
0.0
 10
159.866025
 20
490.571797
 30
0.0
 10
159.866025
 20
489.428203
 30
0.0
 10
160.401924
 20
488.500000
 30
0.0
  0
SPLINE
  5
164
100
AcDbEntity
  8
0
 62
7
100
AcDbSpline
 70
8
 71
3
 72
8
 73
4
 74
0
 40
0
 40
0
 40
0
 40
0
 40
1
 40
1
 40
1
 40
1
 10
160.401924
 20
488.500000
 30
0.0
 10
160.937822
 20
487.571797
 30
0.0
 10
161.928203
 20
487.000000
 30
0.0
 10
163.000000
 20
487.000000
 30
0.0
  0
LWPOLYLINE
  5
165
100
AcDbEntity
  8
0
 62
7
100
AcDbPolyline
 90
2
 70
0
 10
107.000000
 20
493.000000
 30
0.0
 10
33.000000
 20
493.000000
 30
0.0
  0
SPLINE
  5
166
100
AcDbEntity
  8
0
 62
7
100
AcDbSpline
 70
8
 71
3
 72
8
 73
4
 74
0
 40
0
 40
0
 40
0
 40
0
 40
1
 40
1
 40
1
 40
1
 10
237.000000
 20
487.000000
 30
0.0
 10
238.071797
 20
487.000000
 30
0.0
 10
239.062178
 20
487.571797
 30
0.0
 10
239.598076
 20
488.500000
 30
0.0
  0
SPLINE
  5
167
100
AcDbEntity
  8
0
 62
7
100
AcDbSpline
 70
8
 71
3
 72
8
 73
4
 74
0
 40
0
 40
0
 40
0
 40
0
 40
1
 40
1
 40
1
 40
1
 10
239.598076
 20
488.500000
 30
0.0
 10
240.133975
 20
489.428203
 30
0.0
 10
240.133975
 20
490.571797
 30
0.0
 10
239.598076
 20
491.500000
 30
0.0
  0
SPLINE
  5
168
100
AcDbEntity
  8
0
 62
7
100
AcDbSpline
 70
8
 71
3
 72
8
 73
4
 74
0
 40
0
 40
0
 40
0
 40
0
 40
1
 40
1
 40
1
 40
1
 10
239.598076
 20
491.500000
 30
0.0
 10
239.062178
 20
492.428203
 30
0.0
 10
238.071797
 20
493.000000
 30
0.0
 10
237.000000
 20
493.000000
 30
0.0
  0
LWPOLYLINE
  5
169
100
AcDbEntity
  8
0
 62
7
100
AcDbPolyline
 90
2
 70
0
 10
163.000000
 20
487.000000
 30
0.0
 10
237.000000
 20
487.000000
 30
0.0
  0
SPLINE
  5
16a
100
AcDbEntity
  8
0
 62
7
100
AcDbSpline
 70
8
 71
3
 72
8
 73
4
 74
0
 40
0
 40
0
 40
0
 40
0
 40
1
 40
1
 40
1
 40
1
 10
263.000000
 20
493.000000
 30
0.0
 10
261.928203
 20
493.000000
 30
0.0
 10
260.937822
 20
492.428203
 30
0.0
 10
260.401924
 20
491.500000
 30
0.0
  0
SPLINE
  5
16b
100
AcDbEntity
  8
0
 62
7
100
AcDbSpline
 70
8
 71
3
 72
8
 73
4
 74
0
 40
0
 40
0
 40
0
 40
0
 40
1
 40
1
 40
1
 40
1
 10
260.401924
 20
491.500000
 30
0.0
 10
259.866025
 20
490.571797
 30
0.0
 10
259.866025
 20
489.428203
 30
0.0
 10
260.401924
 20
488.500000
 30
0.0
  0
SPLINE
  5
16c
100
AcDbEntity
  8
0
 62
7
100
AcDbSpline
 70
8
 71
3
 72
8
 73
4
 74
0
 40
0
 40
0
 40
0
 40
0
 40
1
 40
1
 40
1
 40
1
 10
260.401924
 20
488.500000
 30
0.0
 10
260.937822
 20
487.571797
 30
0.0
 10
261.928203
 20
487.000000
 30
0.0
 10
263.000000
 20
487.000000
 30
0.0
  0
LWPOLYLINE
  5
16d
100
AcDbEntity
  8
0
 62
7
100
AcDbPolyline
 90
2
 70
0
 10
237.000000
 20
493.000000
 30
0.0
 10
163.000000
 20
493.000000
 30
0.0
  0
SPLINE
  5
16e
100
AcDbEntity
  8
0
 62
7
100
AcDbSpline
 70
8
 71
3
 72
8
 73
4
 74
0
 40
0
 40
0
 40
0
 40
0
 40
1
 40
1
 40
1
 40
1
 10
337.000000
 20
487.000000
 30
0.0
 10
338.071797
 20
487.000000
 30
0.0
 10
339.062178
 20
487.571797
 30
0.0
 10
339.598076
 20
488.500000
 30
0.0
  0
SPLINE
  5
16f
100
AcDbEntity
  8
0
 62
7
100
AcDbSpline
 70
8
 71
3
 72
8
 73
4
 74
0
 40
0
 40
0
 40
0
 40
0
 40
1
 40
1
 40
1
 40
1
 10
339.598076
 20
488.500000
 30
0.0
 10
340.133975
 20
489.428203
 30
0.0
 10
340.133975
 20
490.571797
 30
0.0
 10
339.598076
 20
491.500000
 30
0.0
  0
SPLINE
  5
170
100
AcDbEntity
  8
0
 62
7
100
AcDbSpline
 70
8
 71
3
 72
8
 73
4
 74
0
 40
0
 40
0
 40
0
 40
0
 40
1
 40
1
 40
1
 40
1
 10
339.598076
 20
491.500000
 30
0.0
 10
339.062178
 20
492.428203
 30
0.0
 10
338.071797
 20
493.000000
 30
0.0
 10
337.000000
 20
493.000000
 30
0.0
  0
LWPOLYLINE
  5
171
100
AcDbEntity
  8
0
 62
7
100
AcDbPolyline
 90
2
 70
0
 10
263.000000
 20
487.000000
 30
0.0
 10
337.000000
 20
487.000000
 30
0.0
  0
SPLINE
  5
172
100
AcDbEntity
  8
0
 62
7
100
AcDbSpline
 70
8
 71
3
 72
8
 73
4
 74
0
 40
0
 40
0
 40
0
 40
0
 40
1
 40
1
 40
1
 40
1
 10
393.000000
 20
493.000000
 30
0.0
 10
391.928203
 20
493.000000
 30
0.0
 10
390.937822
 20
492.428203
 30
0.0
 10
390.401924
 20
491.500000
 30
0.0
  0
SPLINE
  5
173
100
AcDbEntity
  8
0
 62
7
100
AcDbSpline
 70
8
 71
3
 72
8
 73
4
 74
0
 40
0
 40
0
 40
0
 40
0
 40
1
 40
1
 40
1
 40
1
 10
390.401924
 20
491.500000
 30
0.0
 10
389.866025
 20
490.571797
 30
0.0
 10
389.866025
 20
489.428203
 30
0.0
 10
390.401924
 20
488.500000
 30
0.0
  0
SPLINE
  5
174
100
AcDbEntity
  8
0
 62
7
100
AcDbSpline
 70
8
 71
3
 72
8
 73
4
 74
0
 40
0
 40
0
 40
0
 40
0
 40
1
 40
1
 40
1
 40
1
 10
390.401924
 20
488.500000
 30
0.0
 10
390.937822
 20
487.571797
 30
0.0
 10
391.928203
 20
487.000000
 30
0.0
 10
393.000000
 20
487.000000
 30
0.0
  0
LWPOLYLINE
  5
175
100
AcDbEntity
  8
0
 62
7
100
AcDbPolyline
 90
2
 70
0
 10
337.000000
 20
493.000000
 30
0.0
 10
263.000000
 20
493.000000
 30
0.0
  0
SPLINE
  5
176
100
AcDbEntity
  8
0
 62
7
100
AcDbSpline
 70
8
 71
3
 72
8
 73
4
 74
0
 40
0
 40
0
 40
0
 40
0
 40
1
 40
1
 40
1
 40
1
 10
467.000000
 20
487.000000
 30
0.0
 10
468.071797
 20
487.000000
 30
0.0
 10
469.062178
 20
487.571797
 30
0.0
 10
469.598076
 20
488.500000
 30
0.0
  0
SPLINE
  5
177
100
AcDbEntity
  8
0
 62
7
100
AcDbSpline
 70
8
 71
3
 72
8
 73
4
 74
0
 40
0
 40
0
 40
0
 40
0
 40
1
 40
1
 40
1
 40
1
 10
469.598076
 20
488.500000
 30
0.0
 10
470.133975
 20
489.428203
 30
0.0
 10
470.133975
 20
490.571797
 30
0.0
 10
469.598076
 20
491.500000
 30
0.0
  0
SPLINE
  5
178
100
AcDbEntity
  8
0
 62
7
100
AcDbSpline
 70
8
 71
3
 72
8
 73
4
 74
0
 40
0
 40
0
 40
0
 40
0
 40
1
 40
1
 40
1
 40
1
 10
469.598076
 20
491.500000
 30
0.0
 10
469.062178
 20
492.428203
 30
0.0
 10
468.071797
 20
493.000000
 30
0.0
 10
467.000000
 20
493.000000
 30
0.0
  0
LWPOLYLINE
  5
179
100
AcDbEntity
  8
0
 62
7
100
AcDbPolyline
 90
2
 70
0
 10
393.000000
 20
487.000000
 30
0.0
 10
467.000000
 20
487.000000
 30
0.0
  0
SPLINE
  5
17a
100
AcDbEntity
  8
0
 62
7
100
AcDbSpline
 70
8
 71
3
 72
8
 73
4
 74
0
 40
0
 40
0
 40
0
 40
0
 40
1
 40
1
 40
1
 40
1
 10
33.000000
 20
13.000000
 30
0.0
 10
31.928203
 20
13.000000
 30
0.0
 10
30.937822
 20
12.428203
 30
0.0
 10
30.401924
 20
11.500000
 30
0.0
  0
SPLINE
  5
17b
100
AcDbEntity
  8
0
 62
7
100
AcDbSpline
 70
8
 71
3
 72
8
 73
4
 74
0
 40
0
 40
0
 40
0
 40
0
 40
1
 40
1
 40
1
 40
1
 10
30.401924
 20
11.500000
 30
0.0
 10
29.866025
 20
10.571797
 30
0.0
 10
29.866025
 20
9.428203
 30
0.0
 10
30.401924
 20
8.500000
 30
0.0
  0
SPLINE
  5
17c
100
AcDbEntity
  8
0
 62
7
100
AcDbSpline
 70
8
 71
3
 72
8
 73
4
 74
0
 40
0
 40
0
 40
0
 40
0
 40
1
 40
1
 40
1
 40
1
 10
30.401924
 20
8.500000
 30
0.0
 10
30.937822
 20
7.571797
 30
0.0
 10
31.928203
 20
7.000000
 30
0.0
 10
33.000000
 20
7.000000
 30
0.0
  0
SPLINE
  5
17d
100
AcDbEntity
  8
0
 62
7
100
AcDbSpline
 70
8
 71
3
 72
8
 73
4
 74
0
 40
0
 40
0
 40
0
 40
0
 40
1
 40
1
 40
1
 40
1
 10
33.000000
 20
7.000000
 30
0.0
 10
33.000000
 20
7.000000
 30
0.0
 10
107.000000
 20
7.000000
 30
0.0
 10
107.000000
 20
7.000000
 30
0.0
  0
SPLINE
  5
17e
100
AcDbEntity
  8
0
 62
7
100
AcDbSpline
 70
8
 71
3
 72
8
 73
4
 74
0
 40
0
 40
0
 40
0
 40
0
 40
1
 40
1
 40
1
 40
1
 10
107.000000
 20
7.000000
 30
0.0
 10
108.071797
 20
7.000000
 30
0.0
 10
109.062178
 20
7.571797
 30
0.0
 10
109.598076
 20
8.500000
 30
0.0
  0
SPLINE
  5
17f
100
AcDbEntity
  8
0
 62
7
100
AcDbSpline
 70
8
 71
3
 72
8
 73
4
 74
0
 40
0
 40
0
 40
0
 40
0
 40
1
 40
1
 40
1
 40
1
 10
109.598076
 20
8.500000
 30
0.0
 10
110.133975
 20
9.428203
 30
0.0
 10
110.133975
 20
10.571797
 30
0.0
 10
109.598076
 20
11.500000
 30
0.0
  0
SPLINE
  5
180
100
AcDbEntity
  8
0
 62
7
100
AcDbSpline
 70
8
 71
3
 72
8
 73
4
 74
0
 40
0
 40
0
 40
0
 40
0
 40
1
 40
1
 40
1
 40
1
 10
109.598076
 20
11.500000
 30
0.0
 10
109.062178
 20
12.428203
 30
0.0
 10
108.071797
 20
13.000000
 30
0.0
 10
107.000000
 20
13.000000
 30
0.0
  0
LWPOLYLINE
  5
181
100
AcDbEntity
  8
0
 62
7
100
AcDbPolyline
 90
2
 70
0
 10
467.000000
 20
493.000000
 30
0.0
 10
393.000000
 20
493.000000
 30
0.0
  0
SPLINE
  5
182
100
AcDbEntity
  8
0
 62
7
100
AcDbSpline
 70
8
 71
3
 72
8
 73
4
 74
0
 40
0
 40
0
 40
0
 40
0
 40
1
 40
1
 40
1
 40
1
 10
163.000000
 20
13.000000
 30
0.0
 10
161.928203
 20
13.000000
 30
0.0
 10
160.937822
 20
12.428203
 30
0.0
 10
160.401924
 20
11.500000
 30
0.0
  0
SPLINE
  5
183
100
AcDbEntity
  8
0
 62
7
100
AcDbSpline
 70
8
 71
3
 72
8
 73
4
 74
0
 40
0
 40
0
 40
0
 40
0
 40
1
 40
1
 40
1
 40
1
 10
160.401924
 20
11.500000
 30
0.0
 10
159.866025
 20
10.571797
 30
0.0
 10
159.866025
 20
9.428203
 30
0.0
 10
160.401924
 20
8.500000
 30
0.0
  0
SPLINE
  5
184
100
AcDbEntity
  8
0
 62
7
100
AcDbSpline
 70
8
 71
3
 72
8
 73
4
 74
0
 40
0
 40
0
 40
0
 40
0
 40
1
 40
1
 40
1
 40
1
 10
160.401924
 20
8.500000
 30
0.0
 10
160.937822
 20
7.571797
 30
0.0
 10
161.928203
 20
7.000000
 30
0.0
 10
163.000000
 20
7.000000
 30
0.0
  0
SPLINE
  5
185
100
AcDbEntity
  8
0
 62
7
100
AcDbSpline
 70
8
 71
3
 72
8
 73
4
 74
0
 40
0
 40
0
 40
0
 40
0
 40
1
 40
1
 40
1
 40
1
 10
163.000000
 20
7.000000
 30
0.0
 10
163.000000
 20
7.000000
 30
0.0
 10
237.000000
 20
7.000000
 30
0.0
 10
237.000000
 20
7.000000
 30
0.0
  0
SPLINE
  5
186
100
AcDbEntity
  8
0
 62
7
100
AcDbSpline
 70
8
 71
3
 72
8
 73
4
 74
0
 40
0
 40
0
 40
0
 40
0
 40
1
 40
1
 40
1
 40
1
 10
237.000000
 20
7.000000
 30
0.0
 10
238.071797
 20
7.000000
 30
0.0
 10
239.062178
 20
7.571797
 30
0.0
 10
239.598076
 20
8.500000
 30
0.0
  0
SPLINE
  5
187
100
AcDbEntity
  8
0
 62
7
100
AcDbSpline
 70
8
 71
3
 72
8
 73
4
 74
0
 40
0
 40
0
 40
0
 40
0
 40
1
 40
1
 40
1
 40
1
 10
239.598076
 20
8.500000
 30
0.0
 10
240.133975
 20
9.428203
 30
0.0
 10
240.133975
 20
10.571797
 30
0.0
 10
239.598076
 20
11.500000
 30
0.0
  0
SPLINE
  5
188
100
AcDbEntity
  8
0
 62
7
100
AcDbSpline
 70
8
 71
3
 72
8
 73
4
 74
0
 40
0
 40
0
 40
0
 40
0
 40
1
 40
1
 40
1
 40
1
 10
239.598076
 20
11.500000
 30
0.0
 10
239.062178
 20
12.428203
 30
0.0
 10
238.071797
 20
13.000000
 30
0.0
 10
237.000000
 20
13.000000
 30
0.0
  0
LWPOLYLINE
  5
189
100
AcDbEntity
  8
0
 62
7
100
AcDbPolyline
 90
2
 70
0
 10
107.000000
 20
13.000000
 30
0.0
 10
33.000000
 20
13.000000
 30
0.0
  0
SPLINE
  5
18a
100
AcDbEntity
  8
0
 62
7
100
AcDbSpline
 70
8
 71
3
 72
8
 73
4
 74
0
 40
0
 40
0
 40
0
 40
0
 40
1
 40
1
 40
1
 40
1
 10
263.000000
 20
13.000000
 30
0.0
 10
261.928203
 20
13.000000
 30
0.0
 10
260.937822
 20
12.428203
 30
0.0
 10
260.401924
 20
11.500000
 30
0.0
  0
SPLINE
  5
18b
100
AcDbEntity
  8
0
 62
7
100
AcDbSpline
 70
8
 71
3
 72
8
 73
4
 74
0
 40
0
 40
0
 40
0
 40
0
 40
1
 40
1
 40
1
 40
1
 10
260.401924
 20
11.500000
 30
0.0
 10
259.866025
 20
10.571797
 30
0.0
 10
259.866025
 20
9.428203
 30
0.0
 10
260.401924
 20
8.500000
 30
0.0
  0
SPLINE
  5
18c
100
AcDbEntity
  8
0
 62
7
100
AcDbSpline
 70
8
 71
3
 72
8
 73
4
 74
0
 40
0
 40
0
 40
0
 40
0
 40
1
 40
1
 40
1
 40
1
 10
260.401924
 20
8.500000
 30
0.0
 10
260.937822
 20
7.571797
 30
0.0
 10
261.928203
 20
7.000000
 30
0.0
 10
263.000000
 20
7.000000
 30
0.0
  0
SPLINE
  5
18d
100
AcDbEntity
  8
0
 62
7
100
AcDbSpline
 70
8
 71
3
 72
8
 73
4
 74
0
 40
0
 40
0
 40
0
 40
0
 40
1
 40
1
 40
1
 40
1
 10
263.000000
 20
7.000000
 30
0.0
 10
263.000000
 20
7.000000
 30
0.0
 10
337.000000
 20
7.000000
 30
0.0
 10
337.000000
 20
7.000000
 30
0.0
  0
SPLINE
  5
18e
100
AcDbEntity
  8
0
 62
7
100
AcDbSpline
 70
8
 71
3
 72
8
 73
4
 74
0
 40
0
 40
0
 40
0
 40
0
 40
1
 40
1
 40
1
 40
1
 10
337.000000
 20
7.000000
 30
0.0
 10
338.071797
 20
7.000000
 30
0.0
 10
339.062178
 20
7.571797
 30
0.0
 10
339.598076
 20
8.500000
 30
0.0
  0
SPLINE
  5
18f
100
AcDbEntity
  8
0
 62
7
100
AcDbSpline
 70
8
 71
3
 72
8
 73
4
 74
0
 40
0
 40
0
 40
0
 40
0
 40
1
 40
1
 40
1
 40
1
 10
339.598076
 20
8.500000
 30
0.0
 10
340.133975
 20
9.428203
 30
0.0
 10
340.133975
 20
10.571797
 30
0.0
 10
339.598076
 20
11.500000
 30
0.0
  0
SPLINE
  5
190
100
AcDbEntity
  8
0
 62
7
100
AcDbSpline
 70
8
 71
3
 72
8
 73
4
 74
0
 40
0
 40
0
 40
0
 40
0
 40
1
 40
1
 40
1
 40
1
 10
339.598076
 20
11.500000
 30
0.0
 10
339.062178
 20
12.428203
 30
0.0
 10
338.071797
 20
13.000000
 30
0.0
 10
337.000000
 20
13.000000
 30
0.0
  0
LWPOLYLINE
  5
191
100
AcDbEntity
  8
0
 62
7
100
AcDbPolyline
 90
2
 70
0
 10
237.000000
 20
13.000000
 30
0.0
 10
163.000000
 20
13.000000
 30
0.0
  0
SPLINE
  5
192
100
AcDbEntity
  8
0
 62
7
100
AcDbSpline
 70
8
 71
3
 72
8
 73
4
 74
0
 40
0
 40
0
 40
0
 40
0
 40
1
 40
1
 40
1
 40
1
 10
393.000000
 20
13.000000
 30
0.0
 10
391.928203
 20
13.000000
 30
0.0
 10
390.937822
 20
12.428203
 30
0.0
 10
390.401924
 20
11.500000
 30
0.0
  0
SPLINE
  5
193
100
AcDbEntity
  8
0
 62
7
100
AcDbSpline
 70
8
 71
3
 72
8
 73
4
 74
0
 40
0
 40
0
 40
0
 40
0
 40
1
 40
1
 40
1
 40
1
 10
390.401924
 20
11.500000
 30
0.0
 10
389.866025
 20
10.571797
 30
0.0
 10
389.866025
 20
9.428203
 30
0.0
 10
390.401924
 20
8.500000
 30
0.0
  0
SPLINE
  5
194
100
AcDbEntity
  8
0
 62
7
100
AcDbSpline
 70
8
 71
3
 72
8
 73
4
 74
0
 40
0
 40
0
 40
0
 40
0
 40
1
 40
1
 40
1
 40
1
 10
390.401924
 20
8.500000
 30
0.0
 10
390.937822
 20
7.571797
 30
0.0
 10
391.928203
 20
7.000000
 30
0.0
 10
393.000000
 20
7.000000
 30
0.0
  0
SPLINE
  5
195
100
AcDbEntity
  8
0
 62
7
100
AcDbSpline
 70
8
 71
3
 72
8
 73
4
 74
0
 40
0
 40
0
 40
0
 40
0
 40
1
 40
1
 40
1
 40
1
 10
393.000000
 20
7.000000
 30
0.0
 10
393.000000
 20
7.000000
 30
0.0
 10
467.000000
 20
7.000000
 30
0.0
 10
467.000000
 20
7.000000
 30
0.0
  0
SPLINE
  5
196
100
AcDbEntity
  8
0
 62
7
100
AcDbSpline
 70
8
 71
3
 72
8
 73
4
 74
0
 40
0
 40
0
 40
0
 40
0
 40
1
 40
1
 40
1
 40
1
 10
467.000000
 20
7.000000
 30
0.0
 10
468.071797
 20
7.000000
 30
0.0
 10
469.062178
 20
7.571797
 30
0.0
 10
469.598076
 20
8.500000
 30
0.0
  0
SPLINE
  5
197
100
AcDbEntity
  8
0
 62
7
100
AcDbSpline
 70
8
 71
3
 72
8
 73
4
 74
0
 40
0
 40
0
 40
0
 40
0
 40
1
 40
1
 40
1
 40
1
 10
469.598076
 20
8.500000
 30
0.0
 10
470.133975
 20
9.428203
 30
0.0
 10
470.133975
 20
10.571797
 30
0.0
 10
469.598076
 20
11.500000
 30
0.0
  0
SPLINE
  5
198
100
AcDbEntity
  8
0
 62
7
100
AcDbSpline
 70
8
 71
3
 72
8
 73
4
 74
0
 40
0
 40
0
 40
0
 40
0
 40
1
 40
1
 40
1
 40
1
 10
469.598076
 20
11.500000
 30
0.0
 10
469.062178
 20
12.428203
 30
0.0
 10
468.071797
 20
13.000000
 30
0.0
 10
467.000000
 20
13.000000
 30
0.0
  0
LWPOLYLINE
  5
199
100
AcDbEntity
  8
0
 62
7
100
AcDbPolyline
 90
2
 70
0
 10
337.000000
 20
13.000000
 30
0.0
 10
263.000000
 20
13.000000
 30
0.0
  0
LWPOLYLINE
  5
19a
100
AcDbEntity
  8
0
 62
7
100
AcDbPolyline
 90
2
 70
0
 10
467.000000
 20
13.000000
 30
0.0
 10
393.000000
 20
13.000000
 30
0.0
  0
ENDSEC
  0
SECTION
  2
OBJECTS
  0
DICTIONARY
  5
C
330
0
100
AcDbDictionary
  3
ACAD_GROUP
350
D
  3
ACAD_MLINESTYLE
350
17
  0
DICTIONARY
  5
D
330
C
100
AcDbDictionary
  0
DICTIONARY
  5
1A
330
C
100
AcDbDictionary
  0
DICTIONARY
  5
17
330
C
100
AcDbDictionary
  3
STANDARD
350
18
  0
DICTIONARY
  5
19
330
C
100
AcDbDictionary
  0
ENDSEC
  0
EOF
